# xmcd CD database file
#
# Track frame offsets:
#	150
#	22225
#	40005
#
# Disc length: 827 seconds
#
# Revision: 0
# Processed by: cddbd v1.5PL3 Copyright (c) Steve Scherf et al.
# Submitted via: CDex 1.50beta10
#
DISCID=1e033903
DTITLE=FIELD OF VIEW - この街で君と暮らしたい
DYEAR=1997
DGENRE=Vocal
TTITLE0=この街で君と暮らしたい
TTITLE1=桜咲くこの場所で
TTITLE2=この街で君と暮らしたい (Original Karaoke)
EXTD=YEAR: 1997/4/23
EXTT0=
EXTT1=
EXTT2=
PLAYORDER=
